<?xml version="1.0" encoding="UTF-8" standalone="no"?>
<!DOCTYPE svg PUBLIC "-//W3C//DTD SVG 1.1//EN" "http://www.w3.org/Graphics/SVG/1.1/DTD/svg11.dtd">
<svg width="100%" height="100%" viewBox="0 0 1138 188" version="1.1" xmlns="http://www.w3.org/2000/svg" xmlns:xlink="http://www.w3.org/1999/xlink" xml:space="preserve" xmlns:serif="http://www.serif.com/" style="fill-rule:evenodd;clip-rule:evenodd;stroke-linejoin:round;stroke-miterlimit:2;">
    <g id="Layer2">
        <path d="M61.672,16.298C70.671,10.889 81.361,7.303 93.412,5.971L425.886,5.911L409.539,83.791C394.62,85.048 379.724,86.911 364.788,88.989C364.492,89.03 364.195,89.066 363.899,89.104L373.667,42.178L313.397,42.006L311.95,46.487L311.796,46.488L306.601,70.212L360.023,70.188L355.601,90.13C322.537,94.057 289.505,96.06 256.502,96.257L267.996,42.052L206.235,41.826L205.08,45.559L261.964,45.861L251.769,96.273C251.624,96.273 251.479,96.273 251.334,96.273L261.671,46.059L204.723,45.906L199.603,70.425L252.465,70.268L247.203,96.265C215.179,96.129 183.182,94.302 151.211,90.895C150.948,90.877 150.683,90.858 150.417,90.839L160.729,42.343L103.583,42.233L94.72,46.409C90.434,50.013 88.097,54.529 87.757,59.98C86.646,68.496 97.058,73.756 111.23,77.953C121.258,81.296 128.157,85.387 132.135,89.256C132.166,89.285 132.196,89.315 132.226,89.345C103.891,86.765 68.031,82.541 38.338,78.684C35.562,69.296 36.029,57.765 41.004,44.512C45.548,32.407 52.356,23.549 61.672,16.298ZM462.316,15.553C463.156,15.04 464.015,14.546 464.891,14.07C479.967,5.874 495.128,4.646 514.811,5.472L506.738,43.362L506.865,42.487C497.897,42.49 493.22,45.844 491.928,46.944C491.764,47.047 491.637,47.162 491.55,47.289C491.55,47.289 491.674,47.16 491.928,46.944C492.327,46.692 492.945,46.509 493.734,46.377C489.239,47.53 486.741,54.166 485.189,63.402L481.299,81.19C466.19,81.04 451.082,81.312 435.975,82.042L441.17,56.581C445.989,34.551 450.248,24.84 462.316,15.553ZM491.928,46.944C491.764,47.047 491.637,47.162 491.55,47.289C491.55,47.289 491.674,47.16 491.928,46.944ZM491.928,46.944C491.764,47.047 491.637,47.162 491.55,47.289C491.55,47.289 491.674,47.16 491.928,46.944Z" style="fill:rgb(70,130,180);"/>
        <path d="M13.311,161.052C8.104,149.692 9.881,139.928 12.328,124.804L62.658,124.752C58.077,142.067 63.057,148.5 75.124,148.76C77.305,148.807 80.532,147.972 83.007,143.791C82.491,144.773 81.913,145.762 81.277,146.756C89.454,140.585 96.523,126.441 89.186,118.986C78.09,110.983 64.691,105.736 54.765,99.782C46.949,95.094 41.071,87.927 38.338,78.684C68.031,82.541 103.891,86.765 132.226,89.345C136.755,93.797 139.828,100.43 140.515,110.906C140.324,122.031 138.306,132.985 134.265,143.813C128.755,153.252 121.972,161.056 113.653,167.376C95.706,176.522 78.489,179.003 61.269,178.673C34.779,178.167 20.761,168.763 18.673,148.405C17.93,141.165 19.181,133.037 21.307,124.82L12.328,124.804C8.016,141.202 9.586,152.574 13.311,161.052ZM481.299,81.19L469.515,135.078C465.711,150.212 457.032,160.033 444.088,170.292C436.865,176.017 427.572,179.722 417.669,181.746C428.4,179.278 435.71,176.068 442.454,171.446C442.882,171.214 443.142,171.032 443.219,170.914C442.965,171.093 442.71,171.271 442.454,171.446C437.259,174.26 407.253,184.391 377.577,176.191C344.581,167.074 357.175,121.407 357.175,121.407L363.899,89.104C364.195,89.066 364.492,89.03 364.788,88.989C379.724,86.911 394.62,85.048 409.539,83.791L399.301,132.566C397.619,142.999 400.573,148.551 408.469,148.897C409.686,148.804 410.727,148.62 411.631,148.334C417.665,147.32 422.9,143.041 425.887,131.482L435.975,82.042C451.082,81.312 466.19,81.04 481.299,81.19ZM352.867,166.54C350.249,161.801 348.896,156.086 349.006,149.521L342.613,178.064L342.873,175.43L239.77,175.161L256.502,96.257C289.505,96.06 322.537,94.057 355.601,90.13L351.369,109.211L351.228,109.211L352.23,105.21L299.357,104.699L298.874,109.173L312.548,109.237L299.154,109.247L293.303,137.904L349.28,138.231L349.475,137.255L349.305,138.111L351.58,138.287L349.164,149.439C348.902,157.614 350.543,160.518 352.703,166.132C352.755,166.269 352.81,166.405 352.867,166.54ZM251.769,96.273C251.624,96.273 251.479,96.273 251.334,96.273L242.525,139.066L184.462,138.877L190.967,109.023L191.327,109.024L191.797,104.67L245.314,105.12L245.145,106.43L247.203,96.265C215.179,96.129 183.182,94.302 151.211,90.895C150.948,90.877 150.683,90.858 150.417,90.839L132.46,175.292L235.791,175.278L251.769,96.273ZM442.454,171.446C442.882,171.214 443.142,171.032 443.219,170.914C442.965,171.093 442.71,171.271 442.454,171.446Z" style="fill:url(#_Radial1);"/>
        <path d="M38.338,78.684C41.071,87.927 46.949,95.094 54.765,99.782C64.691,105.736 78.09,110.983 89.186,118.986C96.523,126.441 89.454,140.585 81.277,146.756C81.913,145.762 82.491,144.773 83.007,143.791C83.587,142.811 84.126,141.646 84.6,140.267C85.49,137.905 85.998,135.58 86.088,133.294C86.234,131.302 86.046,129.224 85.256,127.116C84.732,125.471 83.957,123.848 82.919,122.251C81.769,121.261 80.534,120.306 79.228,119.379C77.548,118.042 75.495,116.72 73.001,115.426C68.026,112.56 62.495,109.916 56.953,107.276C54.752,106.437 52.719,105.518 50.838,104.526C46.448,101.903 42.664,99.141 39.583,96.12C37.111,93.521 35.094,90.707 33.407,87.735C32.289,84.223 31.554,80.903 31.13,77.739C29.365,64.564 32.995,54.093 36.819,43.719C37.523,42.199 38.261,40.737 39.029,39.333C44.384,29.925 52.065,22.072 61.672,16.298C52.356,23.549 45.548,32.407 41.004,44.512C36.029,57.765 35.562,69.296 38.338,78.684ZM134.265,143.813C138.306,132.985 140.324,122.031 140.515,110.906L154.579,46.589L94.72,46.409L103.583,42.233L160.729,42.343L132.46,175.292L234.99,175.221L261.468,46.128L204.756,45.925L206.235,41.826L267.996,42.052L239.77,175.161L342.873,175.43L342.613,178.064L342.301,179.459L126.166,179.59L134.265,143.813ZM13.311,161.052C9.586,152.574 7.999,141.25 12.311,124.852L21.307,124.82C19.181,133.037 17.93,141.165 18.673,148.405C20.761,168.763 34.779,178.167 61.269,178.673C78.489,179.003 95.706,176.522 113.653,167.376C107.454,172.087 100.402,175.973 92.388,179.098C91.985,179.236 91.575,179.372 91.159,179.507C85.531,181.324 80.005,182.492 74.624,183.115C71.206,183.464 67.622,183.65 63.982,183.664C62.762,183.649 61.551,183.608 60.35,183.542C55.886,183.425 51.583,183.107 47.482,182.535C43.941,182.019 40.506,181.323 37.285,180.439C32.15,178.989 27.469,176.969 23.352,174.245C20.258,171.554 17.507,168.526 15.329,164.933C14.563,163.613 13.894,162.322 13.311,161.052ZM311.802,46.509L313.397,42.006L373.667,42.178L357.175,121.407C357.175,121.407 344.581,167.074 377.577,176.191C407.253,184.391 437.259,174.26 442.454,171.446C435.71,176.068 428.4,179.278 417.669,181.746C415.822,182.123 413.953,182.442 412.073,182.705C398.692,184.149 387.418,183.688 377.536,181.443C368.32,179.35 361.836,176.405 357.676,172.861C355.778,171.005 354.167,168.893 352.867,166.54C352.81,166.405 352.755,166.269 352.703,166.132C350.543,160.518 348.902,157.614 349.164,149.439L351.58,138.287L349.305,138.111L349.475,137.255L367.705,46.184L367.518,46.185L367.538,46.087L311.802,46.509ZM436.86,52.287C440.877,35.421 449.534,23.354 462.316,15.553C450.248,24.84 445.989,34.551 441.17,56.581L425.887,131.482C422.9,143.041 417.665,147.32 411.631,148.334C415.257,147.183 416.674,144.377 418.356,139.159C419.163,137.028 420.048,134.392 421.06,131.12L435.207,61.372C435.65,58.133 436.205,55.111 436.86,52.287ZM491.928,46.944C493.22,45.844 497.897,42.49 506.865,42.487L506.738,43.362L506.16,46.075L501.536,46.129C499.161,46.069 496.965,46.065 495.229,46.202L494.87,46.206C494.478,46.226 494.1,46.284 493.734,46.377C492.945,46.509 492.327,46.692 491.928,46.944ZM312.548,109.237L298.825,109.246L299.357,104.699L352.23,105.21L351.371,109.254L312.548,109.237ZM191.327,109.024L191.797,104.67L245.314,105.12L245.145,106.43L244.59,109.172L191.327,109.024Z" style="fill:rgb(70,130,180);"/>
        <g transform="matrix(5.37903,0,0,5.2215,-2457,-250.743)">
            <text x="558.656px" y="57.609px" style="font-family:'Arial-BoldMT', 'Arial', sans-serif;font-weight:700;font-size:11.874px;fill:rgb(70,130,180);">Sistema Eletrônico</text>
            <text x="558.656px" y="70.249px" style="font-family:'Arial-BoldMT', 'Arial', sans-serif;font-weight:700;font-size:11.874px;fill:rgb(70,130,180);">de Execução</text>
            <g transform="matrix(11.874,0,0,11.874,577.783,82.8892)">
            </g>
            <g transform="matrix(11.874,0,0,11.874,581.738,82.8892)">
            </g>
            <g transform="matrix(11.874,0,0,11.874,612.75,82.8892)">
            </g>
            <text x="558.656px" y="82.889px" style="font-family:'Arial-BoldMT', 'Arial', sans-serif;font-weight:700;font-size:11.874px;fill:rgb(70,130,180);">Uniﬁcado</text>
        </g>
    </g>
    <defs>
        <radialGradient id="_Radial1" cx="0" cy="0" r="1" gradientUnits="userSpaceOnUse" gradientTransform="matrix(-456.796,-14.5782,3.18607,-99.8329,281.229,159.953)"><stop offset="0" style="stop-color:rgb(70,130,180);stop-opacity:1"/><stop offset="0.54" style="stop-color:rgb(70,130,180);stop-opacity:1"/><stop offset="1" style="stop-color:rgb(70,130,180);stop-opacity:1"/></radialGradient>
    </defs>
</svg>
